# xmcd CD database file
#
# Track frame offsets:
#	150
#	22162
#	39652
#	63125
#	81115
#	86402
#	108797
#	125460
#	140045
#	158182
#	161777
#	177437
#	193225
#	217782
#
# Disc length: 3183 seconds
#
# Revision: 0
# Processed by: cddbd v1.5.1PL0 Copyright (c) Steve Scherf et al.
# Submitted via: CDex 1.51
#
DISCID=be0c6d0e
DTITLE=Stingray - The Best "21世紀への伝説"
DYEAR=1990
DGENRE=Hard Rock
TTITLE0=Rising
TTITLE1=都会の肖像
TTITLE2=Rain
TTITLE3=Good Feeling
TTITLE4=静寂の丘へ
TTITLE5=21世紀への伝説
TTITLE6=イエルサレム･ブレイク
TTITLE7=アンドロメダ･クライシス
TTITLE8=神の砦 (カーマイン･ローズ)
TTITLE9=Dancing Floppy
TTITLE10=バンパイア･キッス
TTITLE11=September Magic (9月の魔法)
TTITLE12=Endless
TTITLE13=Love Is Make Up!
EXTD=YEAR: 1990
EXTT0=
EXTT1=
EXTT2=
EXTT3=
EXTT4=
EXTT5=
EXTT6=
EXTT7=
EXTT8=
EXTT9=
EXTT10=
EXTT11=
EXTT12=
EXTT13=
PLAYORDER=
